<?xml version="1.0" encoding="UTF-8" standalone="no"?>
<!-- Created with Inkscape (http://www.inkscape.org/) -->

<svg
   xmlns:dc="http://purl.org/dc/elements/1.1/"
   xmlns:cc="http://creativecommons.org/ns#"
   xmlns:rdf="http://www.w3.org/1999/02/22-rdf-syntax-ns#"
   xmlns:svg="http://www.w3.org/2000/svg"
   xmlns="http://www.w3.org/2000/svg"
   xmlns:sodipodi="http://sodipodi.sourceforge.net/DTD/sodipodi-0.dtd"
   xmlns:inkscape="http://www.inkscape.org/namespaces/inkscape"
   width="744.09448819"
   height="1052.3622047"
   id="svg2"
   version="1.1"
   inkscape:version="0.48.4 r9939"
   sodipodi:docname="New document 1">
  <defs
     id="defs4" />
  <sodipodi:namedview
     id="base"
     pagecolor="#ffffff"
     bordercolor="#666666"
     borderopacity="1.0"
     inkscape:pageopacity="0.0"
     inkscape:pageshadow="2"
     inkscape:zoom="0.70710678"
     inkscape:cx="120.35228"
     inkscape:cy="437.61477"
     inkscape:document-units="px"
     inkscape:current-layer="layer1"
     showgrid="false"
     showguides="true"
     inkscape:guide-bbox="true"
     inkscape:window-width="1376"
     inkscape:window-height="1401"
     inkscape:window-x="2622"
     inkscape:window-y="0"
     inkscape:window-maximized="0" />
  <metadata
     id="metadata7">
    <rdf:RDF>
      <cc:Work
         rdf:about="">
        <dc:format>image/svg+xml</dc:format>
        <dc:type
           rdf:resource="http://purl.org/dc/dcmitype/StillImage" />
        <dc:title></dc:title>
      </cc:Work>
    </rdf:RDF>
  </metadata>
  <g
     inkscape:label="Layer 1"
     inkscape:groupmode="layer"
     id="layer1">
    <path
       sodipodi:type="arc"
       style="fill:#13a3f4;fill-rule:evenodd;stroke:#000000;stroke-width:4;stroke-linecap:butt;stroke-linejoin:miter;stroke-opacity:1;fill-opacity:1;stroke-miterlimit:4;stroke-dasharray:none"
       id="path2985"
       sodipodi:cx="225"
       sodipodi:cy="262.36218"
       sodipodi:rx="57"
       sodipodi:ry="57"
       d="m 282,262.36218 a 57,57 0 1 1 -114,0 57,57 0 1 1 114,0 z" />
    <path
       transform="translate(151,0)"
       sodipodi:type="arc"
       style="fill:#a1a1a1;fill-rule:evenodd;stroke:#000000;stroke-width:4;stroke-linecap:butt;stroke-linejoin:miter;stroke-opacity:1;fill-opacity:1;stroke-miterlimit:4;stroke-dasharray:none"
       id="path2985-1"
       sodipodi:cx="225"
       sodipodi:cy="262.36218"
       sodipodi:rx="57"
       sodipodi:ry="57"
       d="m 282,262.36218 a 57,57 0 1 1 -114,0 57,57 0 1 1 114,0 z" />
    <path
       transform="translate(302,0)"
       sodipodi:type="arc"
       style="fill:#07449b;fill-rule:evenodd;stroke:#000000;stroke-width:4;stroke-linecap:butt;stroke-linejoin:miter;stroke-opacity:1;fill-opacity:1;stroke-miterlimit:4;stroke-dasharray:none"
       id="path2985-1-7"
       sodipodi:cx="225"
       sodipodi:cy="262.36218"
       sodipodi:rx="57"
       sodipodi:ry="57"
       d="m 282,262.36218 a 57,57 0 1 1 -114,0 57,57 0 1 1 114,0 z" />
    <path
       sodipodi:type="arc"
       style="fill:#a1a1a1;fill-rule:evenodd;stroke:#000000;stroke-width:4;stroke-linecap:butt;stroke-linejoin:miter;stroke-opacity:1;fill-opacity:1;stroke-miterlimit:4;stroke-dasharray:none"
       id="path2985-4"
       sodipodi:cx="225"
       sodipodi:cy="262.36218"
       sodipodi:rx="57"
       sodipodi:ry="57"
       d="m 282,262.36218 a 57,57 0 1 1 -114,0 57,57 0 1 1 114,0 z"
       transform="translate(0,164)" />
    <path
       transform="translate(151,164)"
       sodipodi:type="arc"
       style="fill:#07449b;fill-rule:evenodd;stroke:#000000;stroke-width:4;stroke-linecap:butt;stroke-linejoin:miter;stroke-opacity:1;fill-opacity:1;stroke-miterlimit:4;stroke-dasharray:none"
       id="path2985-1-0"
       sodipodi:cx="225"
       sodipodi:cy="262.36218"
       sodipodi:rx="57"
       sodipodi:ry="57"
       d="m 282,262.36218 a 57,57 0 1 1 -114,0 57,57 0 1 1 114,0 z" />
    <path
       transform="translate(302,164)"
       sodipodi:type="arc"
       style="fill:#585858;fill-rule:evenodd;stroke:#000000;stroke-width:4;stroke-linecap:butt;stroke-linejoin:miter;stroke-opacity:1;fill-opacity:1;stroke-miterlimit:4;stroke-dasharray:none"
       id="path2985-1-7-9"
       sodipodi:cx="225"
       sodipodi:cy="262.36218"
       sodipodi:rx="57"
       sodipodi:ry="57"
       d="m 282,262.36218 a 57,57 0 1 1 -114,0 57,57 0 1 1 114,0 z" />
    <path
       transform="translate(0,328)"
       sodipodi:type="arc"
       style="fill:#07449b;fill-rule:evenodd;stroke:#000000;stroke-width:4;stroke-linecap:butt;stroke-linejoin:miter;stroke-opacity:1;fill-opacity:1;stroke-miterlimit:4;stroke-dasharray:none"
       id="path2985-48"
       sodipodi:cx="225"
       sodipodi:cy="262.36218"
       sodipodi:rx="57"
       sodipodi:ry="57"
       d="m 282,262.36218 a 57,57 0 1 1 -114,0 57,57 0 1 1 114,0 z" />
    <path
       transform="translate(151,328)"
       sodipodi:type="arc"
       style="fill:#585858;fill-rule:evenodd;stroke:#000000;stroke-width:4;stroke-linecap:butt;stroke-linejoin:miter;stroke-opacity:1;fill-opacity:1;stroke-miterlimit:4;stroke-dasharray:none"
       id="path2985-1-8"
       sodipodi:cx="225"
       sodipodi:cy="262.36218"
       sodipodi:rx="57"
       sodipodi:ry="57"
       d="m 282,262.36218 a 57,57 0 1 1 -114,0 57,57 0 1 1 114,0 z" />
    <path
       transform="translate(302,328)"
       sodipodi:type="arc"
       style="fill:#13a3f4;fill-rule:evenodd;stroke:#000000;stroke-width:4;stroke-linecap:butt;stroke-linejoin:miter;stroke-opacity:1;fill-opacity:1;stroke-miterlimit:4;stroke-dasharray:none"
       id="path2985-1-7-2"
       sodipodi:cx="225"
       sodipodi:cy="262.36218"
       sodipodi:rx="57"
       sodipodi:ry="57"
       d="m 282,262.36218 a 57,57 0 1 1 -114,0 57,57 0 1 1 114,0 z" />
    <path
       sodipodi:type="arc"
       style="fill:#585858;fill-rule:evenodd;stroke:#000000;stroke-width:4;stroke-linecap:butt;stroke-linejoin:miter;stroke-opacity:1;fill-opacity:1;stroke-miterlimit:4;stroke-dasharray:none"
       id="path2985-4-4"
       sodipodi:cx="225"
       sodipodi:cy="262.36218"
       sodipodi:rx="57"
       sodipodi:ry="57"
       d="m 282,262.36218 a 57,57 0 1 1 -114,0 57,57 0 1 1 114,0 z"
       transform="translate(0,492)" />
    <path
       transform="translate(151,492)"
       sodipodi:type="arc"
       style="fill:#13a3f4;fill-rule:evenodd;stroke:#000000;stroke-width:4;stroke-linecap:butt;stroke-linejoin:miter;stroke-opacity:1;fill-opacity:1;stroke-miterlimit:4;stroke-dasharray:none"
       id="path2985-1-0-5"
       sodipodi:cx="225"
       sodipodi:cy="262.36218"
       sodipodi:rx="57"
       sodipodi:ry="57"
       d="m 282,262.36218 a 57,57 0 1 1 -114,0 57,57 0 1 1 114,0 z" />
    <path
       transform="translate(302,492)"
       sodipodi:type="arc"
       style="fill:#a1a1a1;fill-rule:evenodd;stroke:#000000;stroke-width:4;stroke-linecap:butt;stroke-linejoin:miter;stroke-opacity:1;fill-opacity:1;stroke-miterlimit:4;stroke-dasharray:none"
       id="path2985-1-7-9-5"
       sodipodi:cx="225"
       sodipodi:cy="262.36218"
       sodipodi:rx="57"
       sodipodi:ry="57"
       d="m 282,262.36218 a 57,57 0 1 1 -114,0 57,57 0 1 1 114,0 z" />
  </g>
</svg>
