<?xml version="1.0" encoding="UTF-8" standalone="no"?>
<!DOCTYPE svg PUBLIC "-//W3C//DTD SVG 1.1//EN" "http://www.w3.org/Graphics/SVG/1.1/DTD/svg11.dtd">
<!-- Generated by Microsoft Visio, SVG Export LED_Diagram.svg Page-1 -->
<svg xmlns="http://www.w3.org/2000/svg" xmlns:xlink="http://www.w3.org/1999/xlink" xmlns:ev="http://www.w3.org/2001/xml-events"
		xmlns:v="http://schemas.microsoft.com/visio/2003/SVGExtensions/" width="11in" height="8.5in" viewBox="0 0 792 612"
		xml:space="preserve" color-interpolation-filters="sRGB" class="st23">
	<v:documentProperties v:langID="1033" v:viewMarkup="false">
		<v:userDefs>
			<v:ud v:nameU="msvSubprocessMaster" v:prompt="" v:val="VT4(Rectangle)"/>
			<v:ud v:nameU="msvNoAutoConnect" v:val="VT0(1):26"/>
		</v:userDefs>
	</v:documentProperties>

	<style type="text/css">
	<![CDATA[
		.st1 {visibility:visible}
		.st2 {fill:#5b9bd5;fill-opacity:0.22;filter:url(#filter_2);stroke:#5b9bd5;stroke-opacity:0.22}
		.st3 {fill:#7f7f7f;stroke:#c7c8c8;stroke-width:0.25}
		.st4 {fill:#feffff;font-family:Calibri;font-size:1.16666em}
		.st5 {font-size:1em;font-style:italic}
		.st6 {fill:#2e75b5;stroke:#c7c8c8;stroke-width:0.25}
		.st7 {fill:#feffff;font-family:Calibri;font-size:0.833336em}
		.st8 {fill:#d8d8d8;stroke:#c7c8c8;stroke-width:0.25}
		.st9 {fill:#000000;font-family:Calibri;font-size:0.833336em;font-weight:bold}
		.st10 {fill:#9cc3e5;stroke:#c7c8c8;stroke-width:0.25}
		.st11 {fill:#000000;font-family:Calibri;font-size:0.833336em}
		.st12 {font-size:1em}
		.st13 {fill:#538135;stroke:#c7c8c8;stroke-width:0.25}
		.st14 {fill:#a8d08d;stroke:#c7c8c8;stroke-width:0.25}
		.st15 {fill:#bf9000;stroke:#c7c8c8;stroke-width:0.25}
		.st16 {fill:#ffd965;stroke:#c7c8c8;stroke-width:0.25}
		.st17 {stroke:#000000;stroke-linecap:round;stroke-linejoin:round;stroke-width:1}
		.st18 {marker-end:url(#mrkr4-140);stroke:#000000;stroke-linecap:round;stroke-linejoin:round;stroke-width:1.75}
		.st19 {fill:#000000;fill-opacity:1;stroke:#000000;stroke-opacity:1;stroke-width:0.40983606557377}
		.st20 {fill:#ffffff;stroke:none;stroke-linecap:butt}
		.st21 {fill:#000000;font-family:Calibri;font-size:0.666664em;font-style:italic}
		.st22 {fill:#ffffff;stroke:none;stroke-linecap:butt;stroke-width:7.2}
		.st23 {fill:none;fill-rule:evenodd;font-size:12px;overflow:visible;stroke-linecap:square;stroke-miterlimit:3}
	]]>
	</style>

	<defs id="Markers">
		<g id="lend4">
			<path d="M 2 1 L 0 0 L 2 -1 L 2 1 " style="stroke:none"/>
		</g>
		<marker id="mrkr4-140" class="st19" v:arrowType="4" v:arrowSize="2" v:setback="4.88" refX="-4.88" orient="auto"
				markerUnits="strokeWidth" overflow="visible">
			<use xlink:href="#lend4" transform="scale(-2.44,-2.44) "/>
		</marker>
	</defs>
	<defs id="Filters">
		<filter id="filter_2">
			<feGaussianBlur stdDeviation="2"/>
		</filter>
	</defs>
	<g v:mID="0" v:index="1" v:groupContext="foregroundPage">
		<v:userDefs>
			<v:ud v:nameU="msvThemeOrder" v:val="VT0(0):26"/>
		</v:userDefs>
		<title>Page-1</title>
		<v:pageProperties v:drawingScale="1" v:pageScale="1" v:drawingUnits="0" v:shadowOffsetX="9" v:shadowOffsetY="-9"/>
		<v:layer v:name="Connector" v:index="0"/>
		<g id="shape1-1" v:mID="1" v:groupContext="shape" transform="translate(207,-171)">
			<title>Rectangle</title>
			<desc>Bright-Green LED (META Component)</desc>
			<v:userDefs>
				<v:ud v:nameU="visVersion" v:val="VT0(15):26"/>
			</v:userDefs>
			<v:textBlock v:margins="rect(4,4,4,4)" v:verticalAlign="0"/>
			<v:textRect cx="193.5" cy="416.337" width="387" height="391.327"/>
			<g id="shadow1-2" v:groupContext="shadow" v:shadowOffsetX="0.345598" v:shadowOffsetY="-1.97279" v:shadowType="1"
					transform="matrix(1,0,0,1,0.345598,1.97279)" class="st1">
				<rect x="0" y="220.673" width="387" height="391.327" rx="9" ry="9" class="st2"/>
			</g>
			<rect x="0" y="220.673" width="387" height="391.327" rx="9" ry="9" class="st3"/>
			<text x="144.44" y="237.27" class="st4" v:langID="1033"><v:paragraph v:horizAlign="1"/><v:tabList/>Bright-Green LED <v:lf/><tspan
						x="137.94" dy="1.2em" class="st5">(</tspan><tspan class="st5">META Component</tspan><tspan class="st5">)</tspan></text>		</g>
		<g id="shape2-10" v:mID="2" v:groupContext="shape" transform="translate(321.525,-427.5)">
			<title>Rectangle.2</title>
			<desc>EAGLE Schematic Model (Domain Model)</desc>
			<v:userDefs>
				<v:ud v:nameU="visVersion" v:val="VT0(15):26"/>
			</v:userDefs>
			<v:textBlock v:margins="rect(4,4,4,4)" v:verticalAlign="0"/>
			<v:textRect cx="82.2375" cy="573.75" width="164.48" height="76.5"/>
			<g id="shadow2-11" v:groupContext="shadow" v:shadowOffsetX="0.345598" v:shadowOffsetY="-1.97279" v:shadowType="1"
					transform="matrix(1,0,0,1,0.345598,1.97279)" class="st1">
				<rect x="0" y="535.5" width="164.475" height="76.5" rx="9" ry="9" class="st2"/>
			</g>
			<rect x="0" y="535.5" width="164.475" height="76.5" rx="9" ry="9" class="st6"/>
			<text x="32.92" y="548.5" class="st7" v:langID="1033"><v:paragraph v:horizAlign="1"/><v:tabList/>EAGLE Schematic Model<v:lf/><tspan
						x="49.24" dy="1.2em" class="st5">(</tspan><tspan class="st5">Domain Model</tspan><tspan class="st5">)</tspan></text>		</g>
		<g id="shape3-19" v:mID="3" v:groupContext="shape" transform="translate(218.25,-337.5)">
			<title>Rectangle.3</title>
			<desc>Anode (Connector)</desc>
			<v:userDefs>
				<v:ud v:nameU="visVersion" v:val="VT0(15):26"/>
			</v:userDefs>
			<v:textBlock v:margins="rect(4,4,4,4)"/>
			<v:textRect cx="33.75" cy="592.875" width="67.5" height="38.25"/>
			<g id="shadow3-20" v:groupContext="shadow" v:shadowOffsetX="0.345598" v:shadowOffsetY="-1.97279" v:shadowType="1"
					transform="matrix(1,0,0,1,0.345598,1.97279)" class="st1">
				<rect x="0" y="573.75" width="67.5" height="38.25" rx="9" ry="9" class="st2"/>
			</g>
			<rect x="0" y="573.75" width="67.5" height="38.25" rx="9" ry="9" class="st8"/>
			<text x="20.15" y="589.88" class="st9" v:langID="1033"><v:paragraph v:horizAlign="1"/><v:tabList/>Anode <tspan x="9.49"
						dy="1.2em" class="st5">(</tspan><tspan class="st5">Connector</tspan><tspan class="st5">)</tspan></text>		</g>
		<g id="shape5-28" v:mID="5" v:groupContext="shape" transform="translate(333,-441)">
			<title>Rectangle.5</title>
			<desc>Anode Pin</desc>
			<v:userDefs>
				<v:ud v:nameU="visVersion" v:val="VT0(15):26"/>
			</v:userDefs>
			<v:textBlock v:margins="rect(4,4,4,4)"/>
			<v:textRect cx="22.5" cy="597.375" width="45" height="29.25"/>
			<g id="shadow5-29" v:groupContext="shadow" v:shadowOffsetX="0.345598" v:shadowOffsetY="-1.97279" v:shadowType="1"
					transform="matrix(1,0,0,1,0.345598,1.97279)" class="st1">
				<rect x="0" y="582.75" width="45" height="29.25" rx="9" ry="9" class="st2"/>
			</g>
			<rect x="0" y="582.75" width="45" height="29.25" rx="9" ry="9" class="st10"/>
			<text x="9.23" y="594.38" class="st11" v:langID="1033"><v:paragraph v:horizAlign="1"/><v:tabList/>Anode <tspan
						x="16.14" dy="1.2em" class="st12">Pin</tspan></text>		</g>
		<g id="shape6-35" v:mID="6" v:groupContext="shape" transform="translate(427.5,-441)">
			<title>Rectangle.6</title>
			<desc>Cathode Pin</desc>
			<v:userDefs>
				<v:ud v:nameU="visVersion" v:val="VT0(15):26"/>
			</v:userDefs>
			<v:textBlock v:margins="rect(4,4,4,4)"/>
			<v:textRect cx="22.5" cy="597.375" width="45" height="29.25"/>
			<g id="shadow6-36" v:groupContext="shadow" v:shadowOffsetX="0.345598" v:shadowOffsetY="-1.97279" v:shadowType="1"
					transform="matrix(1,0,0,1,0.345598,1.97279)" class="st1">
				<rect x="0" y="582.75" width="45" height="29.25" rx="9" ry="9" class="st2"/>
			</g>
			<rect x="0" y="582.75" width="45" height="29.25" rx="9" ry="9" class="st10"/>
			<text x="5.39" y="594.38" class="st11" v:langID="1033"><v:paragraph v:horizAlign="1"/><v:tabList/>Cathode <tspan
						x="16.14" dy="1.2em" class="st12">Pin</tspan></text>		</g>
		<g id="shape7-42" v:mID="7" v:groupContext="shape" transform="translate(321.525,-328.5)">
			<title>Rectangle.7</title>
			<desc>Modelica Physics Model (Domain Model)</desc>
			<v:userDefs>
				<v:ud v:nameU="visVersion" v:val="VT0(15):26"/>
			</v:userDefs>
			<v:textBlock v:margins="rect(4,4,4,4)" v:verticalAlign="0"/>
			<v:textRect cx="82.2375" cy="573.75" width="164.48" height="76.5"/>
			<g id="shadow7-43" v:groupContext="shadow" v:shadowOffsetX="0.345598" v:shadowOffsetY="-1.97279" v:shadowType="1"
					transform="matrix(1,0,0,1,0.345598,1.97279)" class="st1">
				<rect x="0" y="535.5" width="164.475" height="76.5" rx="9" ry="9" class="st2"/>
			</g>
			<rect x="0" y="535.5" width="164.475" height="76.5" rx="9" ry="9" class="st13"/>
			<text x="33.33" y="548.5" class="st7" v:langID="1033"><v:paragraph v:horizAlign="1"/><v:tabList/>Modelica Physics Model<v:newlineChar/><tspan
						x="49.24" dy="1.2em" class="st5">(</tspan><tspan class="st5">Domain Model</tspan><tspan class="st5">)</tspan></text>		</g>
		<g id="shape8-51" v:mID="8" v:groupContext="shape" transform="translate(333,-342)">
			<title>Rectangle.8</title>
			<desc>Anode Pin</desc>
			<v:userDefs>
				<v:ud v:nameU="visVersion" v:val="VT0(15):26"/>
			</v:userDefs>
			<v:textBlock v:margins="rect(4,4,4,4)"/>
			<v:textRect cx="22.5" cy="597.375" width="45" height="29.25"/>
			<g id="shadow8-52" v:groupContext="shadow" v:shadowOffsetX="0.345598" v:shadowOffsetY="-1.97279" v:shadowType="1"
					transform="matrix(1,0,0,1,0.345598,1.97279)" class="st1">
				<rect x="0" y="582.75" width="45" height="29.25" rx="9" ry="9" class="st2"/>
			</g>
			<rect x="0" y="582.75" width="45" height="29.25" rx="9" ry="9" class="st14"/>
			<text x="9.23" y="594.38" class="st11" v:langID="1033"><v:paragraph v:horizAlign="1"/><v:tabList/>Anode <tspan
						x="16.14" dy="1.2em" class="st12">Pin</tspan></text>		</g>
		<g id="shape9-58" v:mID="9" v:groupContext="shape" transform="translate(427.5,-342)">
			<title>Rectangle.9</title>
			<desc>Cathode Pin</desc>
			<v:userDefs>
				<v:ud v:nameU="visVersion" v:val="VT0(15):26"/>
			</v:userDefs>
			<v:textBlock v:margins="rect(4,4,4,4)"/>
			<v:textRect cx="22.5" cy="597.375" width="45" height="29.25"/>
			<g id="shadow9-59" v:groupContext="shadow" v:shadowOffsetX="0.345598" v:shadowOffsetY="-1.97279" v:shadowType="1"
					transform="matrix(1,0,0,1,0.345598,1.97279)" class="st1">
				<rect x="0" y="582.75" width="45" height="29.25" rx="9" ry="9" class="st2"/>
			</g>
			<rect x="0" y="582.75" width="45" height="29.25" rx="9" ry="9" class="st14"/>
			<text x="5.39" y="594.38" class="st11" v:langID="1033"><v:paragraph v:horizAlign="1"/><v:tabList/>Cathode <tspan
						x="16.14" dy="1.2em" class="st12">Pin</tspan></text>		</g>
		<g id="shape10-65" v:mID="10" v:groupContext="shape" transform="translate(321.525,-189)">
			<title>Rectangle.10</title>
			<desc>Creo CAD Model (Domain Model)</desc>
			<v:userDefs>
				<v:ud v:nameU="visVersion" v:val="VT0(15):26"/>
			</v:userDefs>
			<v:textBlock v:margins="rect(4,4,4,4)" v:verticalAlign="0"/>
			<v:textRect cx="82.2375" cy="551.25" width="164.48" height="121.5"/>
			<g id="shadow10-66" v:groupContext="shadow" v:shadowOffsetX="0.345598" v:shadowOffsetY="-1.97279" v:shadowType="1"
					transform="matrix(1,0,0,1,0.345598,1.97279)" class="st1">
				<rect x="0" y="490.5" width="164.475" height="121.5" rx="9" ry="9" class="st2"/>
			</g>
			<rect x="0" y="490.5" width="164.475" height="121.5" rx="9" ry="9" class="st15"/>
			<text x="48.63" y="503.5" class="st7" v:langID="1033"><v:paragraph v:horizAlign="1"/><v:tabList/>Creo CAD Model<v:newlineChar/><tspan
						x="49.24" dy="1.2em" class="st5">(</tspan><tspan class="st5">Domain Model</tspan><tspan class="st5">)</tspan></text>		</g>
		<g id="shape11-74" v:mID="11" v:groupContext="shape" transform="translate(333,-244.125)">
			<title>Rectangle.11</title>
			<desc>Anode Center Axis</desc>
			<v:userDefs>
				<v:ud v:nameU="visVersion" v:val="VT0(15):26"/>
			</v:userDefs>
			<v:textBlock v:margins="rect(4,4,4,4)"/>
			<v:textRect cx="31.5" cy="597.375" width="63" height="29.25"/>
			<g id="shadow11-75" v:groupContext="shadow" v:shadowOffsetX="0.345598" v:shadowOffsetY="-1.97279" v:shadowType="1"
					transform="matrix(1,0,0,1,0.345598,1.97279)" class="st1">
				<rect x="0" y="582.75" width="63" height="29.25" rx="9" ry="9" class="st2"/>
			</g>
			<rect x="0" y="582.75" width="63" height="29.25" rx="9" ry="9" class="st16"/>
			<text x="18.23" y="594.38" class="st11" v:langID="1033"><v:paragraph v:horizAlign="1"/><v:tabList/>Anode <tspan
						x="8.52" dy="1.2em" class="st12">Center Axis</tspan></text>		</g>
		<g id="shape13-81" v:mID="13" v:groupContext="shape" transform="translate(333,-203.625)">
			<title>Rectangle.13</title>
			<desc>Anode Mount Plane</desc>
			<v:userDefs>
				<v:ud v:nameU="visVersion" v:val="VT0(15):26"/>
			</v:userDefs>
			<v:textBlock v:margins="rect(4,4,4,4)"/>
			<v:textRect cx="31.5" cy="597.375" width="63" height="29.25"/>
			<g id="shadow13-82" v:groupContext="shadow" v:shadowOffsetX="0.345598" v:shadowOffsetY="-1.97279" v:shadowType="1"
					transform="matrix(1,0,0,1,0.345598,1.97279)" class="st1">
				<rect x="0" y="582.75" width="63" height="29.25" rx="9" ry="9" class="st2"/>
			</g>
			<rect x="0" y="582.75" width="63" height="29.25" rx="9" ry="9" class="st16"/>
			<text x="18.23" y="594.38" class="st11" v:langID="1033"><v:paragraph v:horizAlign="1"/><v:tabList/>Anode <tspan
						x="5.29" dy="1.2em" class="st12">Mount Plane</tspan></text>		</g>
		<g id="shape14-88" v:mID="14" v:groupContext="shape" transform="translate(409.5,-244.125)">
			<title>Rectangle.14</title>
			<desc>Cathode Center Axis</desc>
			<v:userDefs>
				<v:ud v:nameU="visVersion" v:val="VT0(15):26"/>
			</v:userDefs>
			<v:textBlock v:margins="rect(4,4,4,4)"/>
			<v:textRect cx="31.5" cy="597.375" width="63" height="29.25"/>
			<g id="shadow14-89" v:groupContext="shadow" v:shadowOffsetX="0.345598" v:shadowOffsetY="-1.97279" v:shadowType="1"
					transform="matrix(1,0,0,1,0.345598,1.97279)" class="st1">
				<rect x="0" y="582.75" width="63" height="29.25" rx="9" ry="9" class="st2"/>
			</g>
			<rect x="0" y="582.75" width="63" height="29.25" rx="9" ry="9" class="st16"/>
			<text x="14.39" y="594.38" class="st11" v:langID="1033"><v:paragraph v:horizAlign="1"/><v:tabList/>Cathode <tspan
						x="8.52" dy="1.2em" class="st12">Center Axis</tspan></text>		</g>
		<g id="shape15-95" v:mID="15" v:groupContext="shape" transform="translate(409.5,-203.625)">
			<title>Rectangle.15</title>
			<desc>Cathode Mount Plane</desc>
			<v:userDefs>
				<v:ud v:nameU="visVersion" v:val="VT0(15):26"/>
			</v:userDefs>
			<v:textBlock v:margins="rect(4,4,4,4)"/>
			<v:textRect cx="31.5" cy="597.375" width="63" height="29.25"/>
			<g id="shadow15-96" v:groupContext="shadow" v:shadowOffsetX="0.345598" v:shadowOffsetY="-1.97279" v:shadowType="1"
					transform="matrix(1,0,0,1,0.345598,1.97279)" class="st1">
				<rect x="0" y="582.75" width="63" height="29.25" rx="9" ry="9" class="st2"/>
			</g>
			<rect x="0" y="582.75" width="63" height="29.25" rx="9" ry="9" class="st16"/>
			<text x="14.39" y="594.38" class="st11" v:langID="1033"><v:paragraph v:horizAlign="1"/><v:tabList/>Cathode <tspan
						x="5.29" dy="1.2em" class="st12">Mount Plane</tspan></text>		</g>
		<g id="shape16-102" v:mID="16" v:groupContext="shape" v:layerMember="0" transform="translate(333,-455.625)">
			<title>Dynamic connector</title>
			<path d="M0 612 C-20.25 612 -50.68 612 -65.87 627.04 C-81 642.01 -81 671.91 -81 691.87" class="st17"/>
		</g>
		<g id="shape17-105" v:mID="17" v:groupContext="shape" v:layerMember="0" transform="translate(333,-347.625)">
			<title>Dynamic connector.17</title>
			<path d="M0 603 C-11.81 603 -35.44 603 -47.25 603" class="st17"/>
		</g>
		<g id="shape18-108" v:mID="18" v:groupContext="shape" v:layerMember="0" transform="translate(333,-258.75)">
			<title>Dynamic connector.18</title>
			<path d="M0 612 C-20.25 612 -50.74 612 -65.93 597.12 C-81 582.35 -81 552.94 -81 533.25" class="st17"/>
		</g>
		<g id="shape19-111" v:mID="19" v:groupContext="shape" v:layerMember="0" transform="translate(333,-218.25)">
			<title>Dynamic connector.19</title>
			<path d="M0 612 C-20.25 612 -49.05 612 -64.2 591.89 C-81 569.59 -81 522.56 -81 492.75" class="st17"/>
		</g>
		<g id="shape20-114" v:mID="20" v:groupContext="shape" transform="translate(515.25,-337.5)">
			<title>Rectangle.20</title>
			<desc>Cathode (Connector)</desc>
			<v:userDefs>
				<v:ud v:nameU="visVersion" v:val="VT0(15):26"/>
			</v:userDefs>
			<v:textBlock v:margins="rect(4,4,4,4)"/>
			<v:textRect cx="33.75" cy="592.875" width="67.5" height="38.25"/>
			<g id="shadow20-115" v:groupContext="shadow" v:shadowOffsetX="0.345598" v:shadowOffsetY="-1.97279" v:shadowType="1"
					transform="matrix(1,0,0,1,0.345598,1.97279)" class="st1">
				<rect x="0" y="573.75" width="67.5" height="38.25" rx="9" ry="9" class="st2"/>
			</g>
			<rect x="0" y="573.75" width="67.5" height="38.25" rx="9" ry="9" class="st8"/>
			<text x="16.33" y="589.88" class="st9" v:langID="1033"><v:paragraph v:horizAlign="1"/><v:tabList/>Cathode <tspan
						x="9.49" dy="1.2em" class="st5">(</tspan><tspan class="st5">Connector</tspan><tspan class="st5">)</tspan></text>		</g>
		<g id="shape21-123" v:mID="21" v:groupContext="shape" v:layerMember="0" transform="translate(472.5,-455.625)">
			<title>Dynamic connector.21</title>
			<path d="M0 612 C19.13 612 47.64 612 61.98 626.8 C76.5 641.77 76.5 671.91 76.5 691.87" class="st17"/>
		</g>
		<g id="shape22-126" v:mID="22" v:groupContext="shape" v:layerMember="0" transform="translate(472.5,-347.625)">
			<title>Dynamic connector.22</title>
			<path d="M0 603 C10.69 603 32.06 603 42.75 603" class="st17"/>
		</g>
		<g id="shape23-129" v:mID="23" v:groupContext="shape" v:layerMember="0" transform="translate(472.5,-258.75)">
			<title>Dynamic connector.23</title>
			<path d="M0 612 C19.13 612 47.7 612 62.04 597.35 C76.5 582.59 76.5 552.94 76.5 533.25" class="st17"/>
		</g>
		<g id="shape24-132" v:mID="24" v:groupContext="shape" v:layerMember="0" transform="translate(472.5,-218.25)">
			<title>Dynamic connector.24</title>
			<path d="M0 612 C19.12 612 46.13 612 60.43 592.18 C76.5 569.9 76.5 522.56 76.5 492.75" class="st17"/>
		</g>
		<g id="shape27-135" v:mID="27" v:groupContext="shape" v:layerMember="0" transform="translate(218.25,-365.063)">
			<title>Dynamic connector.27</title>
			<desc>to other components</desc>
			<v:textBlock v:margins="rect(4,4,4,4)"/>
			<v:textRect cx="-41.625" cy="621" width="49.64" height="27.2035"/>
			<path d="M0 620.44 L-74.71 621.45" class="st18"/>
			<rect v:rectContext="textBkgnd" x="-61.5347" y="611.4" width="39.8197" height="19.1997" class="st20"/>
			<text x="-54.65" y="618.6" class="st21" v:langID="1033"><v:paragraph v:horizAlign="1"/><v:tabList/>to other<v:lf/><tspan
						x="-61.53" dy="1.2em" class="st12">components</tspan></text>		</g>
		<g id="shape28-144" v:mID="28" v:groupContext="shape" v:layerMember="0" transform="translate(582.75,-365.063)">
			<title>Dynamic connector.28</title>
			<desc>to other components</desc>
			<v:textBlock v:margins="rect(4,4,4,4)"/>
			<v:textRect cx="41.625" cy="621" width="49.64" height="27.2035"/>
			<path d="M0 620.44 L74.71 621.45" class="st18"/>
			<rect v:rectContext="textBkgnd" x="21.7153" y="611.4" width="39.8197" height="19.1997" class="st22"/>
			<text x="28.6" y="618.6" class="st21" v:langID="1033"><v:paragraph v:horizAlign="1"/><v:tabList/>to other<v:lf/><tspan
						x="21.72" dy="1.2em" class="st12">components</tspan></text>		</g>
	</g>
</svg>
